<svg xmlns="http://www.w3.org/2000/svg" width="64" height="64" viewBox="0 0 64 64">
  <defs>
    <style>
      .cls-1, .cls-2 {
        fill: none;
        stroke: #000;
        fill-rule: evenodd;
      }

      .cls-1 {
        stroke-width: 2px;
      }

      .cls-2 {
        stroke-width: 1px;
      }
    </style>
  </defs>
  <path id="Forma_1" data-name="Forma 1" class="cls-1" d="M15,3H53s2.99,0.664,3,3,0,42,0,42,0.02,1.926-3,2-42,0-42,0-5.586,1.84-4.977,5.111C6.626,58.352,5.994,7,6,7s1.977-4,6-4h3Z"/>
  <path id="Forma_2" data-name="Forma 2" class="cls-1" d="M48,3h6a2.041,2.041,0,0,1,2,2c0.01,1.913,0,7,0,7L47,3h1Z"/>
  <path id="Forma_3" data-name="Forma 3" class="cls-1" d="M56,40v8s-0.307,1.926-2,2-7,0-7,0,2.8-4.986,4-6S56,40,56,40Z"/>
  <path id="Forma_4" data-name="Forma 4" class="cls-1" d="M15,10s-8.973.307-9,3S6,7,6,7s1.574-4,4-4h5v7Z"/>
  <path id="Forma_5" data-name="Forma 5" class="cls-1" d="M15,16s-8.867.065-9,3,0-7,0-7,9.035-3.943,9-1C14.974,13.2,15,16,15,16Z"/>
  <path id="Forma_6" data-name="Forma 6" class="cls-1" d="M6,40s9.035-2.14,9,0,0,5,0,5-8.867-.285-9,3S6,40,6,40Z"/>
  <path id="Forma_7" data-name="Forma 7" class="cls-1" d="M15,16s-8.867-1.1-9,3S6,42,6,42s8.824-5.621,9-2S15,16,15,16Z"/>
  <path id="Forma_8" data-name="Forma 8" class="cls-1" d="M15,50s-8.973,0-9,3,0-7,0-7,9.035-4.323,9-1C14.972,47.688,15,50,15,50Z"/>
  <path id="Forma_10" data-name="Forma 10" class="cls-1" d="M55,50v6s-0.345,2.935-3,3-42,0-42,0-4.079-1.391-4-5,6-4,6-4H55Z"/>
  <path id="Forma_9" data-name="Forma 9" class="cls-1" d="M14,50V62l3-3,3,3V50H14Z"/>
  <path id="Forma_11" data-name="Forma 11" class="cls-1" d="M34,15A11,11,0,0,1,45,26c0,4.763-6.092,10-11,10S24,30.383,24,26,26.695,15,34,15Z"/>
  <path id="Forma_12" data-name="Forma 12" class="cls-1" d="M35,21c3.767-.017,3.916,3.093,4,5a4.01,4.01,0,0,1-4,4c-2.475.08-5.2-.992-5-4S31.234,21.017,35,21Z"/>
  <path id="Forma_13" data-name="Forma 13" class="cls-2" d="M54,54h0Z"/>
  <path id="Forma_14" data-name="Forma 14" class="cls-2" d="M13,55"/>
  <path id="Forma_15" data-name="Forma 15" class="cls-2" d="M13,54H10"/>
</svg>
